<svg xmlns:xlink="http://www.w3.org/1999/xlink" xmlns="http://www.w3.org/2000/svg" data-nom="icone-format-fichier-pdf" role="img" width="2.75" height="2.75" fill="none" stroke-width="1.2" viewBox="-0.09999999999999998 -0.09999999999999998 24.2 24.2" class="m-icon m-icon-file"><title fill="none" stroke-width="1.2px">Document PDF</title> <path stroke="#0E67D6" stroke-linecap="round" stroke-linejoin="round" d="M20.894 4.826a.96.96 0 0 1 .28.676v16.542a.956.956 0 0 1-.957.956H3.957A.956.956 0 0 1 3 22.044V1.957A.957.957 0 0 1 3.957 1h12.715c.253 0 .496.1.676.278l3.546 3.548Z" fill="none" stroke-width="1.2px"></path> <path stroke="#0E67D6" stroke-linecap="round" stroke-linejoin="round" d="M6.693 7.111c-.814-1.34 1.133-2.572 1.642-1.197.872 2.36 2.273 8.743-.888 13.082-.882 1.21-2.785.064-1.761-1.195a15.472 15.472 0 0 1 11.92-5.466c1.595.06 1.513 2.326.086 2.152a14.895 14.895 0 0 1-11-7.376Z" fill="none" stroke-width="1.2px"></path></svg>