<?xml version="1.0" encoding="UTF-8"?>
<svg xmlns="http://www.w3.org/2000/svg" version="1.1" viewBox="0 0 46.1 46.1">
  <!-- Generator: Adobe Illustrator 28.7.3, SVG Export Plug-In . SVG Version: 1.2.0 Build 164)  -->
  <g>
    <g id="Layer_1">
      <path d="M40.3,31V5.2c0-1-.8-1.8-1.8-1.8H13.2c-4.1,0-7.4,3.3-7.4,7.4v24.6c0,4.1,3.3,7.4,7.4,7.4h25.2c1,0,1.8-.8,1.8-1.8v-1.2c0-.6-.3-1.1-.7-1.4-.3-1.2-.3-4.6,0-5.7.4-.3.7-.9.7-1.4ZM15.7,13.7c0-.3.2-.5.5-.5h16.3c.3,0,.5.2.5.5v1.5c0,.3-.2.5-.5.5h-16.3c-.3,0-.5-.2-.5-.5v-1.5ZM15.7,18.6c0-.3.2-.5.5-.5h16.3c.3,0,.5.2.5.5v1.5c0,.3-.2.5-.5.5h-16.3c-.3,0-.5-.2-.5-.5v-1.5ZM35.1,37.8H13.2c-1.4,0-2.5-1.1-2.5-2.5s1.1-2.5,2.5-2.5h22c-.1,1.3-.1,3.6,0,4.9Z"/>
    </g>
  </g>
</svg>