<?xml version="1.0" encoding="UTF-8"?><svg id="Layer_1" xmlns="http://www.w3.org/2000/svg" width="562" height="562" xmlns:xlink="http://www.w3.org/1999/xlink" viewBox="0 0 562 562"><defs><filter id="drop-shadow-1" x="-28" y="-29" width="620" height="620" filterUnits="userSpaceOnUse"><feOffset dx="1" dy="0"/><feGaussianBlur result="blur" stdDeviation="19"/><feFlood flood-color="#000" flood-opacity=".08"/><feComposite in2="blur" operator="in"/><feComposite in="SourceGraphic"/></filter><linearGradient id="linear-gradient" x1="296.227581" y1="128.4696223" x2="387.0525709" y2="263.8776301" gradientTransform="translate(0 564) scale(1 -1)" gradientUnits="userSpaceOnUse"><stop offset=".18" stop-color="#1895fd"/><stop offset=".7" stop-color="#1869d2"/><stop offset="1" stop-color="#1854be"/></linearGradient></defs><g style="filter:url(#drop-shadow-1);"><circle cx="281" cy="281" r="253" style="fill:#fff;"/><path d="M204.5614158,180.0212097h-75.2799455v44.8788986h75.2799455v-44.8788986Z" style="fill:#e30513;"/><path d="M204.561515,180.0212097v-45.0235137h75.2590027v45.0235137h-75.2590027Z" style="fill:#ffc103;"/><path d="M363.8025123,277.2146148c22.8339996-13.3420105,34.2570038-32.6180038,34.2710114-57.828804,0-24.287899-8.598999-44.4384003-25.7960052-60.4513016-17.1970062-16.012969-40.6300049-23.9919103-70.298996-23.9368353h-22.1580048v45.0235357l22.1580048-.1445999c30.2339935,0,45.3499908,13.1903992,45.3499908,39.5710983,0,26.9449005-13.7799988,40.4319-41.3399963,40.4589005h-50.723999v-.1240005h-50.7030029v175.2200012h104.9830017c21.1929932,0,39.3829956-4.0480042,54.5679932-12.1440125.1350098-.0479736.2600098-.117981.3720093-.2059937,6.7200012-3.6300049,12.9210052-8.144989,18.4380035-13.4249878,17.2109985-16.5220032,25.8099976-37.5540009,25.79599-63.0940094,0-31.42099-14.9719849-54.3939972-44.9160004-68.9189911ZM357.4775153,354.9726104c-3.0589905,23.4069977-19.0370026,35.1100006-47.9329987,35.1100006h-54.2799988v-88.4150085h58.2279968c6.4420013-.1039886,12.8630066.780014,19.0370026,2.6230011,4.3619995,1.2779999,8.4179993,3.4309998,11.9179993,6.32901,3.5010071,2.897995,6.3730011,6.4790039,8.4420013,10.522995,3.621994,7.8200073,5.3569946,16.3789978,5.0639954,24.9909973.0370026,2.9530029-.121994,5.9060059-.4759979,8.8390045Z" style="fill:#1895fd;"/><path d="M328.457511,303.1746063c1.378006.3310089,2.756012.7030029,4.1340027,1.1159973,4.3619995,1.2779999,8.4170074,3.4309998,11.9179993,6.32901,3.5010071,2.897995,6.3730011,6.4790039,8.4410095,10.522995,3.6230011,7.8200073,5.3569946,16.3789978,5.0649872,24.9909973.0160065,2.9550018-.1629944,5.9080048-.5379944,8.8390045-3.0589905,23.4069977-19.0370026,35.1100006-47.9329987,35.1100006h-54.2590027l-18.9959946,44.8790131h73.2750015c21.1940002,0,39.3829956-4.0480042,54.5690002-12.1440125.1340027-.0480042.2599945-.1180115.371994-.2059937,6.7200012-3.6300049,12.9210052-8.1459961,18.4380035-13.4250183,6.4970093-6.1949768,11.9490051-13.3989868,16.1430054-21.3339844.2070007-2.2519989.3309937-4.5230103.3309937-6.8160095,0-37.6299896-30.1990051-69.1869965-70.9810028-77.9029999l.0209961.0410004Z" style="fill:url(#linear-gradient);"/></g></svg>