<svg id="Calque_1" data-name="Calque 1" xmlns="http://www.w3.org/2000/svg" xmlns:xlink="http://www.w3.org/1999/xlink" viewBox="0 0 385.1 146.71"><defs><style>.cls-1{fill:#e30513;}.cls-2{fill:url(#Dégradé_sans_nom_81);}.cls-3{fill:#1895fd;}.cls-4{fill:#ffc103;}.cls-5{fill:url(#Dégradé_sans_nom_81-2);}.cls-6{fill:none;}.cls-7{fill:url(#Dégradé_sans_nom_101);}</style><linearGradient id="Dégradé_sans_nom_81" x1="352.69" y1="77.62" x2="295.23" y2="118.21" gradientUnits="userSpaceOnUse"><stop offset="0" stop-color="#1895fd"/><stop offset="0.63" stop-color="#1869d2"/><stop offset="1" stop-color="#1854be"/></linearGradient><linearGradient id="Dégradé_sans_nom_81-2" x1="3841.23" y1="-187.33" x2="3794.27" y2="-134.96" gradientTransform="translate(4159.36 -80.01) rotate(180)" xlink:href="#Dégradé_sans_nom_81"/><linearGradient id="Dégradé_sans_nom_101" x1="80.64" y1="145.71" x2="124.63" y2="80.18" gradientUnits="userSpaceOnUse"><stop offset="0.18" stop-color="#1895fd"/><stop offset="0.7" stop-color="#1869d2"/><stop offset="1" stop-color="#1854be"/></linearGradient></defs><title>Plan de travail 1</title><rect class="cls-1" x="-0.12" y="22" width="36.42" height="21.73"/><path class="cls-2" d="M384.33,77.06V99.87q0,21.32-13.35,34.12a44.61,44.61,0,0,1-10.78,7.68A37.37,37.37,0,0,1,355,142a39.78,39.78,0,0,1-37.94-27.82l.11,0c3.42,7.32,10,11,19.81,11q22.83,0,22.81-26V77.49a36.92,36.92,0,0,0-2.32-13.95c-.1-.35-.21-.7-.32-1A39.78,39.78,0,0,0,319.2,34.69,37.27,37.27,0,0,0,314,35,49.46,49.46,0,0,1,334.66,30c.76,0,1.52-.05,2.31-.05h.25c.78,0,1.54,0,2.31.05q18.95.73,31.24,12.43Q383.79,55,384.3,75.3C384.33,75.88,384.33,76.47,384.33,77.06Z"/><path class="cls-3" d="M219.66,31.69l-4.74,21.09q-9.9-1.94-13.56-1.93-9,0-14.63,5.81t-5.6,15.28v72.52H156.6V71.94q0-18.94,12.8-30.78t31.75-11.83A90.27,90.27,0,0,1,219.66,31.69Z"/><path class="cls-3" d="M263.77,144.46H239.24V31.26h24.53Z"/><path class="cls-4" d="M36.3,22V.2H72.71V22Z"/><path class="cls-5" d="M289.89,99.69V76.87q0-21.3,13.36-34.12A44.23,44.23,0,0,1,314,35.07a38.7,38.7,0,0,1,5.2-.35,39.8,39.8,0,0,1,37.95,27.82l-.12,0c-3.42-7.32-10-11-19.8-11q-22.85,0-22.82,26.05V99.26a37,37,0,0,0,2.32,13.95c.1.35.21.7.32,1A39.79,39.79,0,0,0,355,142.06a37.23,37.23,0,0,0,5.2-.35,49.61,49.61,0,0,1-20.66,5.08c-.77,0-1.53,0-2.31,0H337c-.78,0-1.54,0-2.31,0q-18.93-.75-31.24-12.44-13-12.59-13.53-32.91C289.89,100.87,289.89,100.28,289.89,99.69Z"/><path class="cls-6" d="M98.24,81.17A30.46,30.46,0,0,0,89,79.9H60.83v42.83H87.09q21,0,23.19-17a32.38,32.38,0,0,0,.26-4.28,26.65,26.65,0,0,0-2.45-12.1A16.17,16.17,0,0,0,98.24,81.17Z"/><path class="cls-3" d="M113.34,69.06q16.57-9.69,16.58-28,0-17.64-12.48-29.27T83.43.2H72.71V22l10.72-.07q21.94,0,21.94,19.16,0,19.57-20,19.59H60.83v-.06H36.3v84.84H87.09q15.38,0,26.4-5.88a.64.64,0,0,0,.18-.1,41.28,41.28,0,0,0,8.92-6.5q12.49-12,12.48-30.55Q135.07,79.61,113.34,69.06Zm-3.06,37.65q-2.22,17-23.19,17H60.83V80.9H89a30.46,30.46,0,0,1,9.21,1.27,16.17,16.17,0,0,1,9.85,8.16,26.65,26.65,0,0,1,2.45,12.1A32.38,32.38,0,0,1,110.28,106.71Z"/><path class="cls-7" d="M96.24,81.63q1,.24,2,.54a16.17,16.17,0,0,1,9.85,8.16,26.65,26.65,0,0,1,2.45,12.1,32.38,32.38,0,0,1-.26,4.28q-2.22,17-23.19,17H60.84l-9.19,21.73H87.1q15.38,0,26.4-5.88a.64.64,0,0,0,.18-.1,41.28,41.28,0,0,0,8.92-6.5,40.27,40.27,0,0,0,7.81-10.33h0c.1-1.09.16-2.19.16-3.3,0-18.22-14.61-33.5-34.34-37.72Z"/></svg>